<?xml version="1.0" standalone="no"?>
<!DOCTYPE svg PUBLIC "-//W3C//DTD SVG 1.1//EN" "http://www.w3.org/Graphics/SVG/1.1/DTD/svg11.dtd" >
<svg xmlns="http://www.w3.org/2000/svg">
<metadata>
This is a custom SVG webfont generated by Font Squirrel.
Copyright   : httpwwwfatorcaoscombr
</metadata>
<defs>
<font id="webfontMyMJzWFI" horiz-adv-x="1152" >
<font-face units-per-em="2048" ascent="1536" descent="-512" />
<missing-glyph horiz-adv-x="500" />
<glyph unicode=" " />
<glyph unicode="!" d="M384 256h256v-256h-256v256zM256 1152h128v128h256v-128h128v-384h-128v-384h-256v384h-128v384z" />
<glyph unicode="&#x22;" d="M768 896h-128v512h256v-384h-128v-128zM256 1024h-128v384h256v-512h-128v128z" />
<glyph unicode="#" d="M512 384v384h-128v-384h128zM128 1152h256v-256h128v256h256v-256h128v-128h-128v-384h128v-128h-128v-256h-256v256h-128v-256h-256v256h-128v128h128v384h-128v128h128v256z" />
<glyph unicode="$" d="M640 1152h-384v-384h512v-128h128v-512h-128v-128h-128v-256h-256v256h-256v128h-128v256h128v-128h128v-128h384v512h-512v128h-128v384h128v128h256v256h256v-256h128v-128h128v-256h-128v128h-128v128z" />
<glyph unicode="%" d="M640 256h256v-256h-256v256zM0 1024h256v-256h-256v256zM768 640h-128v-128h-128v-128h-128v-128h-128v-128h-128v-128h-128v256h128v128h128v128h128v128h128v128h128v128h128v128h128v-256h-128v-128z" />
<glyph unicode="&#x26;" d="M512 1152h-128v-256h128v256zM640 767l1 1h255v-128h-128v-512h128v-128h-256v128h-128v384h-128v128h-128v-512h255l1 -2v-126h-384v128h-128v512h128v128h128v128h-128v256h128v128h384v-128h128v-256h-128v-128h-128v-128h128v127z" />
<glyph unicode="'" d="M128 1024h128v384h256v-384h-128v-128h-256v128z" />
<glyph unicode="(" d="M256 1024h128v128h128v128h256v-128h-128v-128h-128v-768h128v-128h128v-128h-256v128h-128v128h-128v768z" />
<glyph unicode=")" d="M256 128h128v128h128v768h-128v128h-128v128h256v-128h128v-128h128v-768h-128v-128h-128v-128h-256v128z" />
<glyph unicode="*" d="M128 896h256v-128h256v128h256v-128h-128v-128h256v-128h-256v-128h128v-128h-256v128h-256v-128h-256v128h128v128h-256v128h256v128h-128v128z" />
<glyph unicode="+" d="M128 640h256v256h256v-256h256v-128h-256v-256h-256v256h-256v128z" />
<glyph unicode="," d="M256 0h128v384h256v-384h-128v-128h-256v128z" />
<glyph unicode="-" d="M0 640h896v-128h-896v128z" />
<glyph unicode="." d="M384 256h256v-256h-256v256z" />
<glyph unicode="/" d="M768 640h-128v-128h-128v-128h-128v-128h-128v-128h-128v-128h-128v256h128v128h128v128h128v128h128v128h128v128h128v128h128v-256h-128v-128z" />
<glyph unicode="0" d="M384 768h128v-256h-128v256zM512 256h128v768h-128v128h-128v-128h-128v-768h128v-128h128v128zM256 128h-128v128h-128v768h128v128h128v128h384v-128h128v-128h128v-768h-128v-128h-128v-128h-384v128z" />
<glyph unicode="1" d="M128 1024h128v128h128v128h256v-1152h256v-128h-768v128h256v768h-256v128z" />
<glyph unicode="2" d="M0 384h128v128h128v128h128v128h128v128h128v256h-384v-128h-256v128h128v128h640v-128h128v-256h-128v-128h-128v-128h-128v-128h-128v-128h-128v-256h384v128h256v-256h-896v384z" />
<glyph unicode="3" d="M256 768h384v384h-384v-128h-256v128h128v128h640v-128h128v-384h-128v-128h128v-512h-128v-128h-640v128h-128v128h256v-128h384v512h-384v128z" />
<glyph unicode="4" d="M256 640h256v256h-128v-128h-128v-128zM896 640v-128h-128v-384h128v-128h-512v128h128v384h-512v256h128v128h128v128h128v128h128v128h256v-640h128z" />
<glyph unicode="5" d="M256 768h512v-128h128v-512h-128v-128h-640v128h-128v128h256v-128h384v512h-640v640h896v-128h-640v-384z" />
<glyph unicode="6" d="M640 640h-384v-512h384v512zM128 1152h128v128h384v-128h-256v-128h-128v-256h512v-128h128v-512h-128v-128h-640v128h-128v896h128v128z" />
<glyph unicode="7" d="M256 512h128v128h128v128h128v384h-384v-128h-256v256h896v-512h-128v-128h-128v-128h-128v-512h-256v512z" />
<glyph unicode="8" d="M640 1152h-384v-384h384v384zM640 640h-384v-512h384v512zM0 640h128v128h-128v384h128v128h640v-128h128v-384h-128v-128h128v-512h-128v-128h-640v128h-128v512z" />
<glyph unicode="9" d="M128 128h512v-128h-512v128zM256 768h384v384h-384v-384zM512 256h128v384h-512v128h-128v384h128v128h640v-128h128v-896h-128v-128h-256v128z" />
<glyph unicode=":" d="M384 384h256v-256h-256v256zM384 1024h256v-256h-256v256z" />
<glyph unicode=";" d="M384 1024h256v-256h-256v256zM384 384h256v-256h-128v-128h-256v128h128v256z" />
<glyph unicode="&#x3c;" d="M640 1152h256v-128h-128v-128h-128v-128h-128v-128h-128v-128h128v-128h128v-128h128v-128h128v-128h-256v128h-128v128h-128v128h-128v128h-128v128h128v128h128v128h128v128h128v128z" />
<glyph unicode="=" d="M128 896h768v-128h-768v128zM128 512h768v-128h-768v128z" />
<glyph unicode="&#x3e;" d="M128 1152h256v-128h128v-128h128v-128h128v-128h128v-128h-128v-128h-128v-128h-128v-128h-128v-128h-256v128h128v128h128v128h128v128h128v128h-128v128h-128v128h-128v128h-128v128z" />
<glyph unicode="?" d="M384 256h256v-256h-256v256zM384 768h128v128h128v256h-384v-256h-256v256h128v128h640v-128h128v-256h-128v-128h-128v-384h-256v384z" />
<glyph unicode="@" d="M384 768h256v256h-384v-896h512v-128h-640v128h-128v896h128v128h640v-128h128v-640h-128v-128h-384v512z" />
<glyph unicode="A" d="M512 1024h-128v-128h-128v-256h384v256h-128v128zM640 0v512h-384v-512h-256v896h128v128h128v128h128v128h128v-128h128v-128h128v-128h128v-896h-256z" />
<glyph unicode="B" d="M384 768h256v384h-256v-384zM640 640h-256v-512h256v512zM0 128h128v1024h-128v128h768v-128h128v-384h-128v-128h128v-512h-128v-128h-768v128z" />
<glyph unicode="C" d="M640 1152h-256v-128h-128v-768h128v-128h256v128h128v128h128v-256h-128v-128h-512v128h-128v128h-128v768h128v128h128v128h512v-128h128v-256h-128v128h-128v128z" />
<glyph unicode="D" d="M640 1024h-128v128h-128v-1024h128v128h128v768zM640 128v-128h-640v128h128v1024h-128v128h640v-128h128v-128h128v-768h-128v-128h-128z" />
<glyph unicode="E" d="M512 640h-128v-512h256v128h128v128h128v-384h-896v128h128v1024h-128v128h896v-384h-128v128h-128v128h-256v-384h128v128h128v-384h-128v128z" />
<glyph unicode="F" d="M768 1024h-128v128h-256v-384h128v128h128v-384h-128v128h-128v-512h128v-128h-512v128h128v1024h-128v128h896v-384h-128v128z" />
<glyph unicode="G" d="M384 640h512v-640h-128v128h-128v384h-256v128zM640 1152h-256v-128h-128v-768h128v-128h256v-128h-384v128h-128v128h-128v768h128v128h128v128h512v-128h128v-256h-128v128h-128v128z" />
<glyph unicode="H" d="M640 640h-384v-640h-256v1280h256v-512h384v512h256v-1280h-256v640z" />
<glyph unicode="I" d="M256 1280h512v-128h-128v-1024h128v-128h-512v128h128v1024h-128v128z" />
<glyph unicode="J" d="M384 1280h512v-128h-128v-1024h-128v-128h-512v128h-128v384h256v-384h256v1024h-128v128z" />
<glyph unicode="K" d="M768 768h-128v-256h128v-128h128v-384h-256v384h-128v128h-128v-512h-384v128h128v1024h-128v128h384v-512h128v128h128v384h256v-384h-128v-128z" />
<glyph unicode="L" d="M384 128h256v128h128v128h128v-384h-896v128h128v1024h-128v128h384h128v-128h-128v-1024z" />
<glyph unicode="M" d="M512 640h-128v128h-128v-768h-256v1280h256v-128h128v-128h128v128h128v128h256v-1280h-256v768h-128v-128z" />
<glyph unicode="N" d="M512 640h-128v128h-128v-768h-256v1280h256v-128h128v-128h128v-128h128v384h256v-1280h-256v512h-128v128z" />
<glyph unicode="O" d="M640 1152h-384v-1024h384v1024zM0 1152h128v128h640v-128h128v-1024h-128v-128h-640v128h-128v1024z" />
<glyph unicode="P" d="M640 1152h-256v-384h256v384zM384 128h128v-128h-512v128h128v1024h-128v128h768v-128h128v-384h-128v-128h-384v-512z" />
<glyph unicode="Q" d="M512 256h128v896h-384v-1024h128v256h128v-128zM512 0h-384v128h-128v1024h128v128h640v-128h128v-1024h-128v-256h128v-128h-384v256z" />
<glyph unicode="R" d="M640 1152h-256v-384h256v384zM640 512h-128v128h-128v-640h-384v128h128v1024h-128v128h768v-128h128v-384h-128v-256h128v-512h-256v512z" />
<glyph unicode="S" d="M0 384h256v-256h384v384h-128v128h-256v128h-128v128h-128v256h128v128h640v-128h128v-256h-256v256h-384v-256h128v-128h256v-128h128v-128h128v-384h-128v-128h-640v128h-128v256z" />
<glyph unicode="T" d="M256 128h128v896h-128v-128h-128v384h768v-384h-128v128h-128v-896h128v-128h-512v128z" />
<glyph unicode="U" d="M0 1280h256v-1152h384v1152h256v-1152h-128v-128h-640v128h-128v1152z" />
<glyph unicode="V" d="M384 128h-128v128h-128v128h-128v896h256v-896h128v-128h128v128h128v896h256v-896h-128v-128h-128v-128h-128v-128h-128v128z" />
<glyph unicode="W" d="M384 0h-256v128h-128v1152h256v-896h128v384h128v-384h128v896h256v-1152h-128v-128h-256v256h-128v-256z" />
<glyph unicode="X" d="M256 768h-128v256h-128v256h256v-256h128v-128h128v128h128v256h256v-256h-128v-256h-128v-256h128v-256h128v-256h-256v256h-128v128h-128v-128h-128v-256h-256v256h128v256h128v256z" />
<glyph unicode="Y" d="M256 128h128v512h-128v128h-128v512h256v-512h256v512h256v-512h-128v-128h-128v-512h128v-128h-512v128z" />
<glyph unicode="Z" d="M0 384h128v128h128v128h128v128h128v128h128v256h-384v-128h-128v-128h-128v384h896v-384h-128v-128h-128v-128h-128v-128h-128v-128h-128v-256h384v128h128v128h128v-384h-896v384z" />
<glyph unicode="[" d="M512 128h256v-128h-512v1280h512v-128h-256v-1024z" />
<glyph unicode="\" d="M768 128h-128v128h-128v128h-128v128h-128v128h-128v128h-128v384h128v-128h128v-128h128v-128h128v-128h128v-128h128v-128h128v-384h-128v128z" />
<glyph unicode="]" d="M256 128h256v1024h-256v128h512v-1280h-512v128z" />
<glyph unicode="^" d="M512 1280h-128v-128h-128v-128h-256v128h128v128h128v128h128v128h128v-128h128v-128h128v-128h128v-128h-256v128h-128v128z" />
<glyph unicode="_" d="M0 -128h1024v-128h-1024v128z" />
<glyph unicode="`" d="M512 1152h-128v128h-128v128h256v-128h128v-128h128v-128h-256v128z" />
<glyph unicode="a" d="M512 0h-384v128h-128v384h128v128h384v128h-384v128h512v-128h128v-640h128v-128h-256v128h-127l-1 1v383h-256v-384h256v-128z" />
<glyph unicode="b" d="M512 768h-128v-640h256v512h-128v128zM384 896h256v-128h128v-128h128v-512h-128v-128h-640v1152h-128v128h384v-384z" />
<glyph unicode="c" d="M640 768h-384v-640h384v128h256v-128h-128v-128h-640v128h-128v640h128v128h640v-128h128v-128h-256v128z" />
<glyph unicode="d" d="M512 768h-128v-128h-128v-512h255l1 -1v-127h-384v128h-128v512h128v128h128v128h256v256h-128v128h384v-1152h128v-128h-256v128h-128v640z" />
<glyph unicode="e" d="M256 640h384v128h-384v-128zM128 896h640v-128h128v-256h-640v-384h384v128h256v-128h-128v-128h-640v128h-128v640h128v128z" />
<glyph unicode="f" d="M128 768h128v384h128v128h384v-128h128v-256h-128v128h-128v128h-128v-384h128v-128h-128v-512h128v-128h-512v128h128v512h-128v128z" />
<glyph unicode="g" d="M512 767l1 1h127v128h256v-128h-128v-1024h-128v-128h-512v128h-128v128h256v-128h256v256h-384v128h-128v640h128v128h384v-128h-256v-640h256v639z" />
<glyph unicode="h" d="M512 896h256v-128h128v-768h-256v768h-128v128zM384 0h-384v128h128v1024h-128v128h384v-512h128v-128h-128v-640z" />
<glyph unicode="i" d="M384 1280h256v-256h-256v256zM256 896h384v-768h128v-128h-512v128h128v640h-128v128z" />
<glyph unicode="j" d="M640 1280h256v-256h-256v256zM512 896h384v-1152h-128v-128h-512v128h-128v256h256v-256h256v1024h-128v128z" />
<glyph unicode="k" d="M512 768h128v128h256v-128h-128v-128h-128v-256h128v-128h128v-256h-256v256h-128v128h-128v-384h-384v128h128v1024h-128v128h384v-640h128v128z" />
<glyph unicode="l" d="M256 1280h384v-1152h128v-128h-512v128h128v1024h-128v128z" />
<glyph unicode="m" d="M640 640h-128v-512h-128v512h-128v-640h-256v896h384v-128h128v128h256v-128h128v-768h-256v640z" />
<glyph unicode="n" d="M128 768h-128v128h256v-128h128v-768h-256v768zM384 896h384v-128h128v-768h-256v768h-256v128z" />
<glyph unicode="o" d="M640 768h-384v-640h384v640zM128 128h-128v640h128v128h640v-128h128v-640h-128v-128h-640v128z" />
<glyph unicode="p" d="M384 896h384v-128h128v-640h-128v-128h-384v-256h128v-128h-512v128h128v1024h-128v128h256v-128h127l1 -1v-639h256v640h-256v128z" />
<glyph unicode="q" d="M512 128v639l1 1h127v128h256v-128h-128v-1024h128v-128h-512v128h128v256h-384v128h-128v640h128v128h384v-128h-256v-640h256z" />
<glyph unicode="r" d="M512 640h-128v-512h128v-128h-512v128h128v640h-128v128h256v-128h128v128h384v-128h128v-256h-256v256h-128v-128z" />
<glyph unicode="s" d="M640 768h-384v-128h128v-128h256v-128h128v-128h128v-128h-128v-128h-640v128h-128v128h256v-128h384v128h-128v128h-256v128h-128v128h-128v128h128v128h640v-128h128v-128h-256v128z" />
<glyph unicode="t" d="M0 896h256v256h128v128h128v-384h256v-128h-256v-640h128v128h256v-128h-128v-128h-384v128h-128v640h-256v128z" />
<glyph unicode="u" d="M512 896h256v-768h128v-128h-256v128h-128v768zM0 896h256v-768h256v-128h-384v128h-128v768z" />
<glyph unicode="v" d="M640 896h256v-640h-128v-128h-128v-128h-384v128h-128v128h-128v640h256v-640h128v-128h128v128h128v640z" />
<glyph unicode="w" d="M768 0h-256v128h-128v-128h-256v128h-128v768h256v-640h128v384h128v-384h128v640h256v-768h-128v-128z" />
<glyph unicode="x" d="M0 896h256v-128h128v-128h128v128h128v128h256v-128h-128v-128h-128v-384h128v-128h128v-128h-256v128h-128v128h-128v-128h-128v-128h-256v128h128v128h128v384h-128v128h-128v128z" />
<glyph unicode="y" d="M0 -256h512v128h128v128h-512v128h-128v768h256v-768h384v768h256v-1024h-128v-128h-128v-128h-640v128z" />
<glyph unicode="z" d="M0 896h896v-128h-128v-128h-128v-128h-128v-128h-128v-128h-128v-128h384v128h256v-256h-896v256h128v128h128v128h128v128h128v128h-256v-128h-256v256z" />
<glyph unicode="{" d="M512 1280h384v-128h-256v-384h-128v-128h128v-512h256v-128h-384v128h-128v512h-256v128h256v384h128v128z" />
<glyph unicode="|" d="M384 1280h256v-1280h-256v1280z" />
<glyph unicode="}" d="M128 128h256v512h128v128h-128v384h-256v128h384v-128h128v-384h256v-128h-256v-512h-128v-128h-384v128z" />
<glyph unicode="~" d="M640 1408h256v-128h-128v-128h-384v128h-128v-128h-256v128h128v128h384v-128h128v128z" />
<glyph d="M512 1280h256v-128h-256v128zM0 1280h256v-128h-256v128zM512 896h256v-768h128v-128h-256v128h-128v768zM0 896h256v-768h256v-128h-384v128h-128v768z" />
<glyph d="M128 1408h256v-128h128v-128h128v-128h-256v128h-128v128h-128v128zM256 896h384v-768h128v-128h-512v128h128v640h-128v128z" />
<glyph d="M640 1408h256v-128h-256v128zM0 1408h256v-128h-256v128zM512 1024h-128v-128h-128v-256h384v256h-128v128zM640 0v512h-384v-512h-256v896h128v128h128v128h128v128h128v-128h128v-128h128v-128h128v-896h-256z" />
<glyph d="M512 1408h-128v-128h128v128zM512 896h-128v-128h-128v-128h384v128h-128v128zM640 1024v-128h128v-128h128v-768h-256v512h-384v-512h-256v768h128v128h128v128h128v128h-128v128h-128v128h128v128h384v-128h128v-128h-128v-128h-128v-128h128z" />
<glyph d="M384 1408h128v128h256v-128h-128v-128h-256v128zM512 512h-128v-384h256v128h128v128h128v-384h-896v128h128v896h-128v128h896v-384h-128v128h-128v128h-256v-384h128v128h128v-384h-128v128z" />
<glyph d="M128 512h256v128h-256v128h256v128h-128v128h-128v256h256v-256h256v256h256v-256h-128v-128h-128v-128h256v-128h-256v-128h256v-128h-256v-384h-256v384h-256v128z" />
<glyph d="M512 1280h-256v-256h256v256zM384 640h128v128h128v128h-384v-896h-256v1408h640v-128h128v-256h-128v-128h128v-256h128v-128h-128v-384h128v-128h-256v128h-128v384h-128v128z" />
<glyph unicode="&#xa0;" d="M384 1408h256v-128h-128v-128h-128v-128h-256v128h128v128h128v128zM512 0h-384v128h-128v384h128v128h384v128h-384v128h512v-128h128v-640h128v-128h-256v128h-127l-1 1v383h-256v-384h256v-128z" />
<glyph unicode="&#xa1;" d="M512 1408h256v-128h-128v-128h-128v-128h-256v128h128v128h128v128zM256 896h384v-768h128v-128h-512v128h128v640h-128v128z" />
<glyph unicode="&#xa2;" d="M384 1408h256v-128h-128v-128h-128v-128h-256v128h128v128h128v128zM640 768h-384v-640h384v640zM128 128h-128v640h128v128h640v-128h128v-640h-128v-128h-640v128z" />
<glyph unicode="&#xa3;" d="M128 1152h128v128h128v128h256v-128h-128v-128h-128v-128h-256v128zM512 896h256v-768h128v-128h-256v128h-128v768zM0 896h256v-768h256v-128h-384v128h-128v768z" />
<glyph unicode="&#xa4;" d="M384 1152h-128v-128h-256v128h128v128h384v-128h128v128h256v-128h-128v-128h-384v128zM128 768h-128v128h256v-128h128v-768h-256v768zM384 896h384v-128h128v-768h-256v768h-256v128z" />
<glyph unicode="&#xa5;" d="M640 1536h256v-128h-128v-128h-384v128h-128v-128h-256v128h128v128h384v-128h128v128zM512 512h-128v128h-128v-640h-256v1152h256v-128h128v-128h128v-128h128v384h256v-1152h-256v384h-128v128z" />
<glyph unicode="&#xa6;" d="M384 896h128v256h-128v-256zM128 640h768v-128h-768v128zM256 896h-128v256h128v128h512v-384h128v-128h-640v128z" />
<glyph unicode="&#xa7;" d="M512 1152h-128v-256h128v256zM128 640h640v-128h-640v128zM256 896h-128v256h128v128h384v-128h128v-256h-128v-128h-384v128z" />
<glyph unicode="&#xa8;" d="M256 1280h256v-256h-256v256zM256 896h256v-256h-128v-128h-128v-384h384v256h256v-256h-128v-128h-640v128h-128v384h128v128h128v256z" />
<glyph unicode="&#xa9;" d="M256 128h-256v640h896v-128h-640v-512z" />
<glyph unicode="&#xaa;" d="M0 768h896v-640h-256v512h-640v128z" />
<glyph unicode="&#xab;" d="M256 -128h128v128h128v128h128v128h-256v128h-128v-128h-128v-128h-128v256h128v128h128v128h128v128h-256v384h-128v128h128v128h256v-640h128v128h128v128h128v128h128v-256h-128v-128h-128v-128h-128v-128h-128v-128h384v-128h128v-128h-128v-128h-128v-128h256v-128 h-640v128z" />
<glyph unicode="&#xac;" d="M768 128v128h-128v-128h128zM896 -256h-256v256h-384v128h128v128h128v128h128v128h256v-384h128v-128h-128v-256zM384 384h-128v-128h-128v-128h-128v256h128v128h128v128h128v128h-256v384h-128v128h128v128h256v-640h128v128h128v128h128v128h128v-256h-128v-128h-128 v-128h-128v-128h-128v-128z" />
<glyph unicode="&#xad;" d="M384 1280h256v-256h-256v256zM256 512h128v384h256v-384h128v-384h-128v-128h-256v128h-128v384z" />
<glyph unicode="&#xae;" d="M512 768h128v128h256v-128h-128v-128h-128v-128h128v-128h128v-128h-256v128h-127l-1 1v127h-127l-1 1v127h128v128zM512 769l-1 -1h-127v-128h-128v-128h128v-128h128v-128h-256v128h-128v128h-128v128h128v128h128v128h256v-127z" />
<glyph unicode="&#xaf;" d="M384 896h256v-128h128v-128h128v-128h-128v-128h-128v-128h-256v128h128v128h128v128h-128v128h-127l-1 1v127zM384 640h128v-127l-1 -1h-127v-127l-1 -1h-127v-128h-256v128h128v128h128v128h-128v128h-128v128h256v-128h128v-128z" />
<glyph unicode="&#xb0;" d="M896 0h128v-128h-128v128zM896 512h128v-128h-128v128zM896 1024h128v-128h-128v128zM896 1280h128v-128h-128v128zM896 768h128v-128h-128v128zM896 256h128v-128h-128v128zM896 -256h128v-128h-128v128zM896 1536h128v-128h-128v128zM640 -128h128v-128h-128v128z M640 384h128v-128h-128v128zM640 896h128v-128h-128v128zM640 1152h128v-128h-128v128zM640 640h128v-128h-128v128zM640 128h128v-128h-128v128zM640 -384h128v-128h-128v128zM640 1408h128v-128h-128v128zM384 0h128v-128h-128v128zM384 512h128v-128h-128v128zM384 1024 h128v-128h-128v128zM384 1280h128v-128h-128v128zM384 768h128v-128h-128v128zM384 256h128v-128h-128v128zM384 -256h128v-128h-128v128zM384 1536h128v-128h-128v128zM128 -128h128v-128h-128v128zM128 384h128v-128h-128v128zM128 896h128v-128h-128v128zM128 1152h128 v-128h-128v128zM128 640h128v-128h-128v128zM128 128h128v-128h-128v128zM128 -384h128v-128h-128v128zM128 1408h128v-128h-128v128z" />
<glyph unicode="&#xb1;" d="M769 -384h127l1 -1v-127h-128v128zM897 -256h127l1 -1l-1 -127h-127v128zM513 -384h127l1 -1v-127h-128v128zM641 -256h127l1 -1l-1 -127h-127v128zM257 -384h127l1 -1v-127h-128v128zM385 -256h127l1 -1l-1 -127h-127v128zM0 -384h127l1 -1v-127h-128v128zM128 -256h127 l1 -1l-1 -127h-127v128zM769 -128h127l1 -1v-127h-128v128zM897 0h127l1 -1l-1 -127h-127v128zM513 -128h127l1 -1v-127h-128v128zM641 0h127l1 -1l-1 -127h-127v128zM257 -128h127l1 -1v-127h-128v128zM385 0h127l1 -1l-1 -127h-127v128zM0 -128h127l1 -1v-127h-128v128z M128 0h127l1 -1l-1 -127h-127v128zM769 128h127l1 -1v-127h-128v128zM897 256h127l1 -1l-1 -127h-127v128zM513 128h127l1 -1v-127h-128v128zM641 256h127l1 -1l-1 -127h-127v128zM257 128h127l1 -1v-127h-128v128zM385 256h127l1 -1l-1 -127h-127v128zM0 128h127l1 -1v-127 h-128v128zM128 256h127l1 -1l-1 -127h-127v128zM769 384h127l1 -1v-127h-128v128zM897 512h127l1 -1l-1 -127h-127v128zM513 384h127l1 -1v-127h-128v128zM641 512h127l1 -1l-1 -127h-127v128zM257 384h127l1 -1v-127h-128v128zM385 512h127l1 -1l-1 -127h-127v128zM0 384 h127l1 -1v-127h-128v128zM128 512h127l1 -1l-1 -127h-127v128zM769 640h127l1 -1v-127h-128v128zM897 768h127l1 -1l-1 -127h-127v128zM513 640h127l1 -1v-127h-128v128zM641 768h127l1 -1l-1 -127h-127v128zM257 640h127l1 -1v-127h-128v128zM385 768h127l1 -1l-1 -127 h-127v128zM0 640h127l1 -1v-127h-128v128zM128 768h127l1 -1l-1 -127h-127v128zM769 896h127l1 -1v-127h-128v128zM897 1024h127l1 -1l-1 -127h-127v128zM513 896h127l1 -1v-127h-128v128zM641 1024h127l1 -1l-1 -127h-127v128zM257 896h127l1 -1v-127h-128v128zM385 1024 h127l1 -1l-1 -127h-127v128zM0 896h127l1 -1v-127h-128v128zM128 1024h127l1 -1l-1 -127h-127v128zM769 1152h127l1 -1v-127h-128v128zM897 1280h127l1 -1l-1 -127h-127v128zM513 1152h127l1 -1v-127h-128v128zM641 1280h127l1 -1l-1 -127h-127v128zM257 1152h127l1 -1v-127 h-128v128zM385 1280h127l1 -1l-1 -127h-127v128zM0 1152h127l1 -1v-127h-128v128zM128 1280h127l1 -1l-1 -127h-127v128zM768 1408h127l1 -1v-127h-128v128zM896 1536h128v-128h-128v128zM512 1408h127l1 -1v-127h-128v128zM640 1536h128v-128h-128v128zM256 1408h127l1 -1 v-127h-128v128zM384 1536h128v-128h-128v128zM0 1408h127l1 -1v-127h-128v128zM128 1536h128v-128h-128v128z" />
<glyph unicode="&#xb2;" d="M896 1152v128h-128v-128h128zM896 640v128h-128v-128h128zM896 128v128h-128v-128h128zM896 -384v128h-128v-128h128zM640 -256v128h-128v-128h128zM640 256v128h-128v-128h128zM640 768v128h-128v-128h128zM640 1280v128h-128v-128h128zM384 384v128h-128v-128h128z M384 -128v128h-128v-128h128zM384 896v128h-128v-128h128zM384 1152v128h-128v-128h128zM384 -384v128h-128v-128h128zM384 128v128h-128v-128h128zM384 640v128h-128v-128h128zM640 1024v128h-128v-128h128zM640 512v128h-128v-128h128zM640 0v128h-128v-128h128zM896 -128 v128h-128v-128h128zM896 384v128h-128v-128h128zM896 896v128h-128v-128h128zM896 1408v128h128v-2048h-384v128h-128v-128h-384v128h-128v128h128v128h-128v128h128v128h-128v128h128v128h-128v128h128v128h-128v128h128v128h-128v128h128v128h-128v128h128v128h-128v128 h256v-128h128v128h384v-128h128z" />
<glyph unicode="&#xb3;" d="M384 1536h256v-2048h-256v2048z" />
<glyph unicode="&#xb4;" d="M0 640h384v896h256v-2048h-256v1024h-384v128z" />
<glyph unicode="&#xb5;" d="M0 896h384v640h256v-2048h-256v1024h-384v128h384v128h-384v128z" />
<glyph unicode="&#xb6;" d="M640 1536h256v-2048h-256v2048zM0 640h256v896h256v-2048h-256v1024h-256v128z" />
<glyph unicode="&#xb7;" d="M640 512h-128v-1024h-256v1024h-256v128h896v-1152h-256v1024z" />
<glyph unicode="&#x2219;" d="M640 512h-128v-1024h-256v1024h-256v128h896v-1152h-256v1024z" />
<glyph unicode="&#xb8;" d="M0 896h640v-1408h-256v1024h-384v128h384v128h-384v128z" />
<glyph unicode="&#xb9;" d="M0 896h256v640h256v-768h-512v128zM0 640h512v-1152h-256v1024h-256v128zM640 1536h256v-2048h-256v2048z" />
<glyph unicode="&#xba;" d="M640 1536h256v-2048h-256v2048zM256 1536h256v-2048h-256v2048z" />
<glyph unicode="&#xbb;" d="M0 640h512v-1152h-256v1024h-256v128zM0 896h896v-1408h-256v1280h-640v128z" />
<glyph unicode="&#xbc;" d="M0 896h256v640h256v-768h-512v128zM0 640h640v896h256v-1024h-896v128z" />
<glyph unicode="&#xbd;" d="M0 640h256v896h256v-896h128v896h256v-1024h-896v128z" />
<glyph unicode="&#xbe;" d="M0 896h384v640h256v-1024h-640v128h384v128h-384v128z" />
<glyph unicode="&#xbf;" d="M0 640h640v-1152h-256v1024h-384v128z" />
<glyph unicode="&#xc0;" d="M384 1536h256v-896h512v-128h-768v1024z" />
<glyph unicode="&#xc1;" d="M0 640h384v896h256v-896h512v-128h-1152v128z" />
<glyph unicode="&#xc2;" d="M0 640h1152v-128h-512v-1024h-256v1024h-384v128z" />
<glyph unicode="&#xc3;" d="M640 -512h-256v2048h256v-896h512v-128h-512v-1024z" />
<glyph unicode="&#xc4;" d="M0 640h1152v-128h-1152v128z" />
<glyph unicode="&#xc5;" d="M0 640h384v896h256v-896h512v-128h-512v-1024h-256v1024h-384v128z" />
<glyph unicode="&#xc6;" d="M640 640h512v-128h-512v-1024h-256v2048h256v-640h512v-128h-512v-128z" />
<glyph unicode="&#xc7;" d="M256 1536h256v-2048h-256v2048zM896 -512h-256v2048h256v-896h256v-128h-256v-1024z" />
<glyph unicode="&#xc8;" d="M640 1536h256v-640h256v-128h-512v768zM256 1536h256v-896h640v-128h-896v1024z" />
<glyph unicode="&#xc9;" d="M640 0v640h512v-128h-256v-1024h-256v512zM256 896h896v-128h-640v-1280h-256v1408z" />
<glyph unicode="&#xca;" d="M0 640h1152v-128h-1152v128zM896 1536v-640h256v-128h-512v768h256zM256 1536h256v-768h-512v128h256v640z" />
<glyph unicode="&#xcb;" d="M0 896h1152v-128h-1152v128zM640 640h512v-128h-256v-1024h-256v1152zM0 640h512v-1152h-256v1024h-256v128z" />
<glyph unicode="&#xcc;" d="M640 1536h256v-640h256v-128h-512v768zM640 640h512v-128h-256v-1024h-256v1152zM256 1536h256v-2048h-256v2048z" />
<glyph unicode="&#xcd;" d="M0 640h1152v-128h-1152v128zM0 896h1152v-128h-1152v128z" />
<glyph unicode="&#xce;" d="M0 896h256v640h256v-768h-512v128zM640 1536h256v-640h256v-128h-512v768zM1152 640v-128h-256v-1024h-256v1152h512zM0 640h512v-1152h-256v1024h-256v128z" />
<glyph unicode="&#xcf;" d="M0 640h1152v-128h-1152v128zM0 896h384v384h256v-384h512v-128h-1152v128z" />
<glyph unicode="&#xd0;" d="M0 640h256v896h256v-896h128v896h256v-896h256v-128h-1152v128z" />
<glyph unicode="&#xd1;" d="M0 896h1152v-128h-1152v128zM0 640h1152v-128h-512v-1024h-256v1024h-384v128z" />
<glyph unicode="&#xd2;" d="M640 512h-128v-1024h-256v1024h-256v128h1152v-128h-256v-1024h-256v1024z" />
<glyph unicode="&#xd3;" d="M256 1536h256v-896h128v896h256v-896h256v-128h-896v1024z" />
<glyph unicode="&#xd4;" d="M384 1536h256v-640h512v-128h-512v-128h512v-128h-768v1024z" />
<glyph unicode="&#xd5;" d="M1152 896v-128h-512v-128h512v-128h-512v-1024h-256v1408h768z" />
<glyph unicode="&#xd6;" d="M640 512h-128v-1024h-256v1152h896v-128h-256v-1024h-256v1024z" />
<glyph unicode="&#xd7;" d="M640 512h-128v-1024h-256v1024h-256v128h256v896h256v-896h128v896h256v-896h256v-128h-256v-1024h-256v1024z" />
<glyph unicode="&#xd8;" d="M0 896h384v640h256v-640h512v-128h-512v-128h512v-128h-512v-1024h-256v1024h-384v128h384v128h-384v128z" />
<glyph unicode="&#xd9;" d="M0 640h384v896h256v-1024h-640v128z" />
<glyph unicode="&#xda;" d="M384 640h768v-128h-512v-1024h-256v1152z" />
<glyph unicode="&#xdb;" d="M0 1536h1152v-2048h-1152v2048z" />
<glyph unicode="&#xdc;" d="M0 640h1152v-1152h-1152v1152z" />
<glyph unicode="&#xdd;" d="M0 1536h512v-2048h-512v2048z" />
<glyph unicode="&#xde;" d="M512 1536h640v-2048h-640v2048z" />
<glyph unicode="&#xdf;" d="M0 1536h1152v-896h-1152v896z" />
<glyph unicode="&#xe0;" d="M384 768h-128v-640h128v640zM640 128h-128v-128h-384v128h-128v640h128v128h384v-128h128v128h256v-128h-128v-128h-128v-384h128v-128h128v-128h-256v128z" />
<glyph unicode="&#xe1;" d="M512 128h128v384h-128v128h-128v128h128v384h-256v-1152h-256v1152h128v128h512v-128h128v-384h-128v-128h128v-128h128v-384h-128v-128h-256v128z" />
<glyph unicode="&#xe2;" d="M256 0h-256v1280h896v-384h-256v256h-384v-1152z" />
<glyph unicode="&#xe3;" d="M512 768h-128v-768h-256v768h-128v128h896v-128h-128v-768h-256v768z" />
<glyph unicode="&#xe4;" d="M0 256h128v128h128v128h128v256h-128v128h-128v128h-128v256h896v-256h-256v128h-384v-128h128v-128h128v-128h128v-256h-128v-128h-128v-128h-128v-128h384v128h256v-256h-896v256z" />
<glyph unicode="&#xe5;" d="M384 768h-128v-640h128v640zM0 768h128v128h768v-128h-256v-640h-128v-128h-384v128h-128v640z" />
<glyph unicode="&#xe6;" d="M0 -256h128v1152h256v-768h256v768h256v-768h-128v-128h-384v-256h-128v-128h-256v128z" />
<glyph unicode="&#xe7;" d="M384 896h-128v-128h-256v128h128v128h384v-128h128v128h256v-128h-128v-128h-128v-768h-256v896z" />
<glyph unicode="&#xe8;" d="M640 896h-256v-512h256v512zM128 896h128v128h128v128h-256v128h768v-128h-256v-128h128v-128h128v-512h-128v-128h-128v-128h256v-128h-768v128h256v128h-128v128h-128v512z" />
<glyph unicode="&#xe9;" d="M256 768h384v256h-128v128h-128v-128h-128v-256zM256 256h128v-128h128v128h128v384h-384v-384zM256 128h-128v128h-128v768h128v128h128v128h384v-128h128v-128h128v-768h-128v-128h-128v-128h-384v128z" />
<glyph unicode="&#xea;" d="M512 1152h-128v-128h-128v-384h128v-640h-384v128h128v512h-128v384h128v128h128v128h384v-128h128v-128h128v-384h-128v-512h128v-128h-384v640h128v384h-128v128z" />
<glyph unicode="&#xeb;" d="M640 640h-256v-512h256v512zM384 1280h512v-128h-384v-128h128v-128h128v-128h128v-640h-128v-128h-512v128h-128v512h128v128h256v128h-128v128h-128v128h128v128z" />
<glyph unicode="&#xec;" d="M384 768h-128v-384h128v384zM768 768h-128v-384h128v384zM896 256h-768v128h-128v384h128v128h768v-128h256v-384h-256v-128z" />
<glyph unicode="&#xed;" d="M384 768h-128v-256h128v256zM768 768h-128v-256h-128v-128h256v384zM896 384v-128h-512v-128h-128v-128h-256v128h128v256h-128v384h128v128h512v128h128v128h384v-128h-256v-256h256v-384h-256z" />
<glyph unicode="&#xee;" d="M384 256h128v-128h256v-128h-384v128h-128v128h-128v768h128v128h128v128h384v-128h-256v-128h-128v-256h384v-128h-384v-384z" />
<glyph unicode="&#xef;" d="M640 1024h-384v-1024h-256v1024h128v128h640v-128h128v-1024h-256v1024z" />
<glyph unicode="&#xf0;" d="M0 640h896v-128h-896v128zM0 1024h896v-128h-896v128zM0 256h896v-128h-896v128z" />
<glyph unicode="&#xf1;" d="M128 128h768v-128h-768v128zM128 768h256v256h256v-256h256v-128h-256v-256h-256v256h-256v128z" />
<glyph unicode="&#xf2;" d="M128 128h768v-128h-768v128zM256 1152h256v-128h128v-128h128v-128h128v-128h-128v-128h-128v-128h-128v-128h-256v128h128v128h128v128h128v128h-128v128h-128v128h-128v128z" />
<glyph unicode="&#xf3;" d="M128 128h768v-128h-768v128zM512 1152h256v-128h-128v-128h-128v-128h-128v-128h128v-128h128v-128h128v-128h-256v128h-128v128h-128v128h-128v128h128v128h128v128h128v128z" />
<glyph unicode="&#xf4;" d="M768 1152h-128v-1664h-256v1664h128v128h384v-128h128v-256h-256v256z" />
<glyph unicode="&#xf5;" d="M0 256h256v-256h128v1536h256v-1536h-128v-128h-384v128h-128v256z" />
<glyph unicode="&#xf6;" d="M384 384h256v-128h-256v128zM384 896h256v-128h-256v128zM128 640h768v-128h-768v128z" />
<glyph unicode="&#xf7;" d="M640 896h256v-128h-128v-128h-384v128h-128v-128h-256v128h128v128h384v-128h128v128zM640 512h256v-128h-128v-128h-384v128h-128v-128h-256v128h128v128h384v-128h128v128z" />
<glyph unicode="&#xf8;" d="M512 1280h-128v-256h128v256zM256 1024h-128v256h128v128h384v-128h128v-256h-128v-128h-384v128z" />
<glyph unicode="&#xf9;" d="M384 640h256v-256h-256v256z" />
<glyph unicode="&#xfa;" d="M384 640h256v-128h-256v128z" />
<glyph unicode="&#xfb;" d="M0 640h384v-384h128v1152h512v-128h-256v-1280h-384v128h-128v128h-128v256h-128v128z" />
<glyph unicode="&#xfc;" d="M512 1408h256v-128h128v-640h-256v640h-128v128zM256 1280h-128v128h256v-128h128v-640h-256v640z" />
<glyph unicode="&#xfd;" d="M128 768h128v128h128v128h128v128h128v128h-256v-128h-256v128h128v128h512v-128h128v-128h-128v-128h-128v-128h-128v-128h256v128h128v-256h-768v128z" />
<glyph unicode="&#xfe;" d="M128 1024h768v-896h-768v896z" />
<glyph unicode="&#xff;" />
<glyph unicode="&#x152;" d="M640 1152h-256v-128h-256v128h128v128h128v128h256v-128h128v-128h128v-128h-256v128zM256 896h384v-768h128v-128h-512v128h128v640h-128v128z" />
<glyph unicode="&#x153;" d="M512 1280h-128v-384h128v-128h-128v-640h256v128h256v-128h-128v-128h-768v256h128v512h-128v128h128v384h128v128h384v-128h128v-256h-128v128h-128v128z" />
<glyph unicode="&#x178;" d="M128 768h256v512h128v128h384v-128h128v-128h-256v128h-128v-512h256v-128h-256v-512h-128v-128h-384v128h-128v128h256v-128h128v512h-256v128z" />
<glyph unicode="&#x2c6;" d="M256 640h384v128h-384v-128zM384 1408h128v-128h128v-128h128v-128h-256v128h-128v-128h-256v128h128v128h128v128zM128 896h640v-128h128v-256h-640v-384h384v128h256v-128h-128v-128h-640v128h-128v640h128v128z" />
<glyph unicode="&#x2dc;" d="M0 1280h256v-128h-256v128zM640 1280h256v-128h-256v128zM0 -256h512v128h128v128h-512v128h-128v768h256v-768h384v768h256v-1024h-128v-128h-128v-128h-640v128z" />
<glyph unicode="&#x2000;" horiz-adv-x="768" />
<glyph unicode="&#x2001;" horiz-adv-x="1536" />
<glyph unicode="&#x2002;" horiz-adv-x="768" />
<glyph unicode="&#x2003;" horiz-adv-x="1536" />
<glyph unicode="&#x2004;" horiz-adv-x="512" />
<glyph unicode="&#x2005;" horiz-adv-x="384" />
<glyph unicode="&#x2006;" horiz-adv-x="256" />
<glyph unicode="&#x2007;" horiz-adv-x="256" />
<glyph unicode="&#x2008;" horiz-adv-x="192" />
<glyph unicode="&#x2009;" horiz-adv-x="307" />
<glyph unicode="&#x200a;" horiz-adv-x="85" />
<glyph unicode="&#x2010;" d="M0 640h896v-128h-896v128z" />
<glyph unicode="&#x2011;" d="M0 640h896v-128h-896v128z" />
<glyph unicode="&#x2012;" d="M0 640h896v-128h-896v128z" />
<glyph unicode="&#x2013;" d="M512 1152h-256v-128h-256v128h128v128h128v128h256v-128h128v-128h128v-128h-256v128zM512 896h256v-768h128v-128h-256v128h-128v768zM0 896h256v-768h256v-128h-384v128h-128v768z" />
<glyph unicode="&#x2014;" d="M128 1408h256v-128h128v-128h128v-128h-256v128h-128v128h-128v128zM512 896h256v-768h128v-128h-256v128h-128v768zM0 896h256v-768h256v-128h-384v128h-128v768z" />
<glyph unicode="&#x2018;" d="M512 512h128v256h-127l-1 1v127h256v-128h128v-384h-256v-256h256v-128h-384v128h-127l-1 1v255h-128v-256h128v-128h-256v128h-128v256h128v128h128v256h-256v128h384v-128h128v-256z" />
<glyph unicode="&#x2019;" d="M256 1024h256v384h-128v-128h-128v-256zM512 896h-256v-896h-256v1280h128v128h128v128h640v-128h-128v-384h128v-128h-128v-768h128v-128h-384v896z" />
<glyph unicode="&#x201a;" d="M256 640h384v128h-384v-128zM384 1280h128v128h256v-128h-128v-128h-128v-128h-256v128h128v128zM128 896h640v-128h128v-256h-640v-384h384v128h256v-128h-128v-128h-640v128h-128v640h128v128z" />
<glyph unicode="&#x201c;" d="M512 1152h-128v-128h-256v128h128v128h128v128h128v-128h128v-128h128v-128h-256v128zM640 768h-384v-640h384v640zM128 128h-128v640h128v128h640v-128h128v-640h-128v-128h-640v128z" />
<glyph unicode="&#x201d;" d="M640 1280h256v-128h-256v128zM0 1280h256v-128h-256v128zM640 768h-384v-640h384v640zM128 128h-128v640h128v128h640v-128h128v-640h-128v-128h-640v128z" />
<glyph unicode="&#x201e;" d="M512 1280h256v-128h-256v128zM0 1280h256v-128h-256v128zM512 0h-384v128h-128v384h128v128h384v128h-384v128h512v-128h128v-640h128v-128h-256v128h-127l-1 1v383h-256v-384h256v-128z" />
<glyph unicode="&#x2022;" d="M128 1408h256v-128h128v-128h128v-128h-256v128h-128v128h-128v128zM640 768h-384v-640h384v640zM128 128h-128v640h128v128h640v-128h128v-640h-128v-128h-640v128z" />
<glyph unicode="&#x2026;" horiz-adv-x="3456" d="M2688 256h256v-256h-256v256zM1536 256h256v-256h-256v256zM384 256h256v-256h-256v256z" />
<glyph unicode="&#x202f;" horiz-adv-x="307" />
<glyph unicode="&#x2039;" d="M128 1280h256v-128h-256v128zM640 1280h256v-128h-256v128zM256 896h384v-768h128v-128h-512v128h128v640h-128v128z" />
<glyph unicode="&#x203a;" d="M640 1024h-384v-640h384v128h256v-128h-128v-128h-128v-256h-256v256h-256v128h-128v640h128v128h256v256h256v-256h128v-128h128v-128h-256v128z" />
<glyph unicode="&#x205f;" horiz-adv-x="384" />
<glyph unicode="&#x20ac;" d="M128 -128h256v128h-128v128h-128v128h-128v768h128v128h128v128h512v-128h128v-256h-128v128h-128v128h-256v-128h-128v-768h128v-128h256v128h128v128h128v-256h-128v-128h-128v-128h-128v-128h-384v128z" />
<glyph unicode="&#x2122;" d="M640 1408h256v-128h-256v128zM0 1408h256v-128h-256v128zM640 1024h-384v-896h384v896zM0 1024h128v128h640v-128h128v-896h-128v-128h-640v128h-128v896z" />
<glyph unicode="&#xe000;" horiz-adv-x="895" d="M0 895h895v-895h-895v895z" />
<glyph unicode="&#xfb01;" horiz-adv-x="2304" d="M1536 1280h256v-256h-256v256zM1408 896h384v-768h128v-128h-512v128h128v640h-128v128zM128 768h128v384h128v128h384v-128h128v-256h-128v128h-128v128h-128v-384h128v-128h-128v-512h128v-128h-512v128h128v512h-128v128z" />
<glyph unicode="&#xfb02;" horiz-adv-x="2304" d="M1408 1280h384v-1152h128v-128h-512v128h128v1024h-128v128zM128 768h128v384h128v128h384v-128h128v-256h-128v128h-128v128h-128v-384h128v-128h-128v-512h128v-128h-512v128h128v512h-128v128z" />
<glyph unicode="&#xfb03;" horiz-adv-x="3456" d="M2688 1280h256v-256h-256v256zM2560 896h384v-768h128v-128h-512v128h128v640h-128v128zM1280 768h128v384h128v128h384v-128h128v-256h-128v128h-128v128h-128v-384h128v-128h-128v-512h128v-128h-512v128h128v512h-128v128zM128 768h128v384h128v128h384v-128h128v-256 h-128v128h-128v128h-128v-384h128v-128h-128v-512h128v-128h-512v128h128v512h-128v128z" />
<glyph unicode="&#xfb04;" horiz-adv-x="3456" d="M2560 1280h384v-1152h128v-128h-512v128h128v1024h-128v128zM1280 768h128v384h128v128h384v-128h128v-256h-128v128h-128v128h-128v-384h128v-128h-128v-512h128v-128h-512v128h128v512h-128v128zM128 768h128v384h128v128h384v-128h128v-256h-128v128h-128v128h-128 v-384h128v-128h-128v-512h128v-128h-512v128h128v512h-128v128z" />
</font>
</defs>
</svg>
